<svg width="25" height="25" viewBox="0 0 25 25" fill="none" xmlns="http://www.w3.org/2000/svg">
<path d="M23.4528 4.28046L18.8007 8.93252L18.8129 8.97322L22.3457 21.977C22.4062 22.2611 22.3988 22.5555 22.3242 22.8362C22.2496 23.117 22.1099 23.3762 21.9163 23.5928L20.7502 24.7589C20.6748 24.8469 20.5784 24.9145 20.47 24.9555C20.3615 24.9965 20.2445 25.0094 20.1297 24.9932C20.0149 24.977 19.906 24.9321 19.8132 24.8627C19.7203 24.7933 19.6465 24.7016 19.5984 24.5961L14.8201 15.9472L13.304 14.4291L9.29502 18.4381C8.83553 18.8481 8.32199 19.1932 7.76875 19.4637L8.66416 22.4084C8.73211 22.6891 8.73074 22.9822 8.66019 23.2622C8.58964 23.5423 8.45201 23.801 8.25919 24.0161L7.90306 24.3742C7.72123 24.5547 7.47545 24.6559 7.21929 24.6559C6.96312 24.6559 6.71734 24.5547 6.53551 24.3742L4.41908 22.2599L4.38244 22.2192L2.77884 20.6196L2.73814 20.5789L0.625769 18.4645C0.445325 18.2827 0.344069 18.0369 0.344069 17.7808C0.344069 17.5246 0.445325 17.2788 0.625769 17.097L0.983935 16.7388C1.19935 16.5467 1.45824 16.4099 1.7383 16.34C2.01837 16.2702 2.31121 16.2695 2.59161 16.3379L5.53631 17.2293C5.80708 16.6762 6.15216 16.1627 6.56197 15.703L10.571 11.694L9.05285 10.18L0.40395 5.40176C0.29844 5.35371 0.206742 5.27984 0.137326 5.18698C0.0679097 5.09413 0.0230152 4.98527 0.00678973 4.87048C-0.00943576 4.75568 0.0035309 4.63865 0.0444921 4.53019C0.0854532 4.42173 0.153088 4.32535 0.241147 4.24994L1.40722 3.08387C1.62393 2.89047 1.88314 2.75082 2.16385 2.67622C2.44457 2.60162 2.73891 2.59417 3.02304 2.65448L16.0269 6.18728L16.0676 6.19949L20.7197 1.54743C21.4727 0.790406 24.0185 -0.528286 24.7755 0.224671C25.5285 0.981698 24.2078 3.52547 23.4528 4.28046Z" fill="#001E40"/>
</svg>
