<svg width="21" height="20" viewBox="0 0 21 20" fill="none" xmlns="http://www.w3.org/2000/svg">
<path fill-rule="evenodd" clip-rule="evenodd" d="M4.27778 0C4.9221 0 5.44444 0.522324 5.44444 1.16667V3.11113H7.38889C8.0332 3.11113 8.55556 3.63347 8.55556 4.27779C8.55556 4.92214 8.0332 5.44446 7.38889 5.44446H5.44444V7.38892C5.44444 8.03323 4.9221 8.55559 4.27778 8.55559C3.63345 8.55559 3.11111 8.03323 3.11111 7.38892V5.44446H1.16667C0.52234 5.44446 0 4.92214 0 4.27779C0 3.63347 0.52234 3.11113 1.16667 3.11113H3.11111V1.16667C3.11111 0.522324 3.63345 0 4.27778 0ZM12.4444 4.27778C12.4444 3.63344 12.9668 3.11111 13.6111 3.11111H19.8333C20.4776 3.11111 21 3.63344 21 4.27778C21 4.9221 20.4776 5.44444 19.8333 5.44444H13.6111C12.9668 5.44444 12.4444 4.9221 12.4444 4.27778ZM12.4444 13.6111C12.4444 12.9668 12.9668 12.4445 13.6111 12.4445H19.8333C20.4776 12.4445 21 12.9668 21 13.6111C21 14.2555 20.4776 14.7778 19.8333 14.7778H13.6111C12.9668 14.7778 12.4444 14.2555 12.4444 13.6111ZM1.11949 12.7862C1.57509 12.3306 2.3138 12.3306 2.7694 12.7862L4.27779 14.2945L5.78615 12.7862C6.24176 12.3306 6.98046 12.3306 7.43602 12.7862C7.89164 13.2419 7.89164 13.9804 7.43602 14.4361L5.92771 15.9445L7.43602 17.4529C7.89164 17.9085 7.89164 18.6471 7.43602 19.1027C6.98043 19.5583 6.24174 19.5583 5.78614 19.1027L4.27779 17.5945L2.76942 19.1027C2.31381 19.5583 1.57512 19.5583 1.1195 19.1027C0.663895 18.6471 0.663895 17.9085 1.1195 17.4529L2.62788 15.9445L1.11949 14.4361C0.66388 13.9804 0.66388 13.2419 1.11949 12.7862ZM12.4444 18.2778C12.4444 17.6335 12.9668 17.1111 13.6111 17.1111H19.8333C20.4776 17.1111 21 17.6335 21 18.2778C21 18.9221 20.4776 19.4445 19.8333 19.4445H13.6111C12.9668 19.4445 12.4444 18.9221 12.4444 18.2778Z" fill="#001E40"/>
</svg>
