<svg width="12" height="20" viewBox="0 0 12 20" fill="none" xmlns="http://www.w3.org/2000/svg">
<path d="M8.99999 5.83332V4.12488C10.1408 3.93176 11 3.09086 11 2.08332C11 0.933086 9.88026 0 8.49997 0H3.49998C2.1197 0 0.999988 0.933086 0.999988 2.08332C0.999988 3.09086 1.85916 3.93172 3.00001 4.12488V5.83332C1.34274 5.83332 0 6.95227 0 8.33332V10V16.6667C0 17.7554 0.834753 18.6808 2.00002 19.0239V19.1667C2.00002 19.6269 2.44773 20 3.00001 20C3.5523 20 4 19.6269 4 19.1667H8C8 19.6269 8.44771 20 8.99999 20C9.55227 20 9.99998 19.6269 9.99998 19.1667V19.0239C11.1652 18.6808 12 17.7554 12 16.6667V10V8.33332C12 6.95227 10.6573 5.83332 8.99999 5.83332ZM3.49998 1.66668H8.50002C8.77574 1.66668 9.00004 1.85359 9.00004 2.08336C8.99999 2.31309 8.77569 2.5 8.49997 2.5H7.99995H3.99995H3.49994C3.22426 2.5 2.99996 2.31309 2.99996 2.08332C2.99996 1.85355 3.22426 1.66668 3.49998 1.66668ZM4.99999 4.16668H7.00001V5.83336H4.99999V4.16668ZM1.99998 8.33332C1.99998 7.87273 2.44726 7.5 2.99996 7.5H3.99995H7.99995H8.99999C9.55269 7.5 9.99998 7.87273 9.99998 8.33332V9.16664H1.99998V8.33332ZM8.99999 17.5H2.99996C2.44726 17.5 1.99998 17.1273 1.99998 16.6667V10.8333H10V16.6666C9.99998 17.1273 9.55269 17.5 8.99999 17.5Z" fill="#43474E" fill-opacity="0.5"/>
</svg>
